<svg xmlns="http://www.w3.org/2000/svg" viewBox="0 0 1500 900" role="img" aria-label="Day 5 白馬上高地山中溫泉新版地圖">
<defs>
<linearGradient id="bg" x1="0" y1="0" x2="0" y2="1"><stop offset="0" stop-color="#edf7fb"/><stop offset="1" stop-color="#f6f5ee"/></linearGradient>
<linearGradient id="mount" x1="0" y1="0" x2="1" y2="1"><stop offset="0" stop-color="#cfe4d7"/><stop offset="1" stop-color="#9fc2aa"/></linearGradient>
<filter id="shadow"><feDropShadow dx="0" dy="3" stdDeviation="5" flood-color="#17324d" flood-opacity="0.18"/></filter>
<filter id="soft"><feGaussianBlur stdDeviation="14"/></filter>
<marker id="arrowPurple" markerWidth="10" markerHeight="10" refX="8" refY="3" orient="auto"><path d="M0,0 L10,3 L0,6 z" fill="#6754d9"/></marker>
<marker id="arrowOrange" markerWidth="10" markerHeight="10" refX="8" refY="3" orient="auto"><path d="M0,0 L10,3 L0,6 z" fill="#e88c27"/></marker>
</defs>
<rect width="1500" height="900" rx="0" fill="url(#bg)"/>
<rect x="0" y="0" width="1500" height="66" fill="#ffffff" opacity=".97"/>
<text x="42" y="43" fill="#17324d" font-size="30" font-weight="900" font-family="system-ui,-apple-system,Segoe UI,Noto Sans TC,sans-serif">Day 5｜白馬 → 上高地 → 山中溫泉</text>
<text x="1035" y="42" text-anchor="end" fill="#687b8c" font-size="17" font-weight="650" font-family="system-ui,-apple-system,Segoe UI,Noto Sans TC,sans-serif">真實地理位置比例＋主要道路＋交通模式</text>
<path d="M 727.2,97.5 L 934.9,141.2 L 999.3,315.9 L 954.7,559.6 L 845.8,699.5 L 756.7,664.6 L 702.2,420.9 Z" fill="url(#mount)" opacity=".38"/>
<path d="M 444.3,429.7 L 558.1,490.9 L 696.7,621.9 L 652.1,778.4 L 449.2,804.6 L 335.3,664.6 Z" fill="url(#mount)" opacity=".38"/>
<path d="M 132.2,271.4 L 295.5,174.0 L 424.2,174.0 L 459.0,376.9 L 390.0,490.9 L 236.5,499.6 Z" fill="url(#mount)" opacity=".38"/>
<path d="M115,145 C310,121 520,173 760,137 S955,163 1015,145" fill="none" stroke="#7fa696" stroke-width="1.3" opacity=".16"/>
<path d="M115,219 C310,195 520,247 760,211 S955,237 1015,219" fill="none" stroke="#7fa696" stroke-width="1.3" opacity=".16"/>
<path d="M115,293 C310,269 520,321 760,285 S955,311 1015,293" fill="none" stroke="#7fa696" stroke-width="1.3" opacity=".16"/>
<path d="M115,367 C310,343 520,395 760,359 S955,385 1015,367" fill="none" stroke="#7fa696" stroke-width="1.3" opacity=".16"/>
<path d="M115,441 C310,417 520,469 760,433 S955,459 1015,441" fill="none" stroke="#7fa696" stroke-width="1.3" opacity=".16"/>
<path d="M115,515 C310,491 520,543 760,507 S955,533 1015,515" fill="none" stroke="#7fa696" stroke-width="1.3" opacity=".16"/>
<path d="M115,589 C310,565 520,617 760,581 S955,607 1015,589" fill="none" stroke="#7fa696" stroke-width="1.3" opacity=".16"/>
<path d="M115,663 C310,639 520,691 760,655 S955,681 1015,663" fill="none" stroke="#7fa696" stroke-width="1.3" opacity=".16"/>
<path d="M762.4,577.8 L806.9,582.1 L851.4,590.9 L900.9,595.2 L950.4,630.2" fill="none" stroke="#8cc9df" stroke-width="5" stroke-linecap="round" opacity=".8"/>
<text x="860.0" y="585.0" fill="#559bb8" font-size="14" font-weight="700" font-family="system-ui,-apple-system,Segoe UI,Noto Sans TC,sans-serif">梓川</text>
<path d="M876.7,184.4 L871.7,359.1 L886.6,525.1" fill="none" stroke="#ffffff" stroke-width="10" stroke-linecap="round" stroke-linejoin="round" opacity=".9"/>
<path d="M876.7,184.4 L871.7,359.1 L886.6,525.1" fill="none" stroke="#a6b1ba" stroke-width="4" stroke-linecap="round" stroke-linejoin="round"/>
<path d="M886.6,525.1 L931.2,586.5 L876.7,621.5 L722.8,640.7 L569.5,719.4" fill="none" stroke="#ffffff" stroke-width="10" stroke-linecap="round" stroke-linejoin="round" opacity=".9"/>
<path d="M886.6,525.1 L931.2,586.5 L876.7,621.5 L722.8,640.7 L569.5,719.4" fill="none" stroke="#a6b1ba" stroke-width="4" stroke-linecap="round" stroke-linejoin="round"/>
<path d="M569.5,719.4 L534.9,763.1 L400.7,588.6 L266.6,326.8" fill="none" stroke="#ffffff" stroke-width="10" stroke-linecap="round" stroke-linejoin="round" opacity=".9"/>
<path d="M569.5,719.4 L534.9,763.1 L400.7,588.6 L266.6,326.8" fill="none" stroke="#a6b1ba" stroke-width="4" stroke-linecap="round" stroke-linejoin="round"/>
<path d="M266.6,326.8 L300.9,230.8 L192.0,457.9" fill="none" stroke="#ffffff" stroke-width="10" stroke-linecap="round" stroke-linejoin="round" opacity=".9"/>
<path d="M266.6,326.8 L300.9,230.8 L192.0,457.9" fill="none" stroke="#a6b1ba" stroke-width="4" stroke-linecap="round" stroke-linejoin="round"/>
<path d="M192.0,457.9 L147.5,588.6" fill="none" stroke="#ffffff" stroke-width="10" stroke-linecap="round" stroke-linejoin="round" opacity=".9"/>
<path d="M192.0,457.9 L147.5,588.6" fill="none" stroke="#a6b1ba" stroke-width="4" stroke-linecap="round" stroke-linejoin="round"/>
<path d="M886.6,525.1 L871.7,559.8" fill="none" stroke="#b5c0c7" stroke-width="3" stroke-dasharray="8 8"/>
<rect x="854.7" y="258.6" width="46" height="26" rx="7" fill="#ffffff" stroke="#778894" stroke-width="1.5"/><text x="877.7" y="276.6" text-anchor="middle" fill="#536775" font-size="15" font-weight="800" font-family="system-ui,-apple-system,Segoe UI,sans-serif">148</text>
<rect x="817.1" y="607.4" width="46" height="26" rx="7" fill="#ffffff" stroke="#778894" stroke-width="1.5"/><text x="840.1" y="625.4" text-anchor="middle" fill="#536775" font-size="15" font-weight="800" font-family="system-ui,-apple-system,Segoe UI,sans-serif">158</text>
<rect x="584.8" y="635.7" width="46" height="26" rx="7" fill="#ffffff" stroke="#778894" stroke-width="1.5"/><text x="607.8" y="653.7" text-anchor="middle" fill="#536775" font-size="15" font-weight="800" font-family="system-ui,-apple-system,Segoe UI,sans-serif">158</text>
<rect x="411.7" y="441.1" width="46" height="26" rx="7" fill="#ffffff" stroke="#778894" stroke-width="1.5"/><text x="434.7" y="459.1" text-anchor="middle" fill="#536775" font-size="15" font-weight="800" font-family="system-ui,-apple-system,Segoe UI,sans-serif">E41</text>
<rect x="274.0" y="353.0" width="46" height="26" rx="7" fill="#ffffff" stroke="#778894" stroke-width="1.5"/><text x="297.0" y="371.0" text-anchor="middle" fill="#536775" font-size="15" font-weight="800" font-family="system-ui,-apple-system,Segoe UI,sans-serif">E8</text>
<path d="M876.7,184.4 L871.7,359.1 L886.6,525.1 L931.2,586.5 L876.7,621.5 L722.8,640.7" fill="none" stroke="#ffffff" stroke-width="16" stroke-linecap="round" stroke-linejoin="round" opacity=".96"/>
<path d="M876.7,184.4 L871.7,359.1 L886.6,525.1 L931.2,586.5 L876.7,621.5 L722.8,640.7" fill="none" stroke="#6754d9" stroke-width="9" stroke-linecap="round" stroke-linejoin="round"/>
<path d="M722.8,640.7 L702.0,614.5 L569.5,719.4 L534.9,763.1 L400.7,588.6 L266.6,326.8 L300.9,230.8 L192.0,457.9 L147.5,588.6" fill="none" stroke="#ffffff" stroke-width="16" stroke-linecap="round" stroke-linejoin="round" opacity=".96"/>
<path d="M722.8,640.7 L702.0,614.5 L569.5,719.4 L534.9,763.1 L400.7,588.6 L266.6,326.8 L300.9,230.8 L192.0,457.9 L147.5,588.6" fill="none" stroke="#6754d9" stroke-width="9" stroke-linecap="round" stroke-linejoin="round"/>
<path d="M722.8,640.7 L707.9,577.8" fill="none" stroke="#ffffff" stroke-width="14" stroke-linecap="round" opacity=".96"/>
<path d="M722.8,640.7 L707.9,577.8" fill="none" stroke="#e88c27" stroke-width="8" stroke-linecap="round" stroke-dasharray="16 11"/>
<rect x="866.6" y="410.0" width="150" height="58" rx="12" fill="#ffffff" opacity=".94" filter="url(#shadow)"/><text x="941.6" y="434.0" text-anchor="middle" fill="#6754d9" font-size="16" font-weight="850" font-family="system-ui,-apple-system,Segoe UI,Noto Sans TC,sans-serif">🚗 約 2h20</text><text x="941.6" y="455.0" text-anchor="middle" fill="#40576c" font-size="14" font-weight="700" font-family="system-ui,-apple-system,Segoe UI,Noto Sans TC,sans-serif">白馬 → 沢渡</text>
<rect x="632.9" y="514.2" width="150" height="58" rx="12" fill="#ffffff" opacity=".94" filter="url(#shadow)"/><text x="707.9" y="538.2" text-anchor="middle" fill="#e88c27" font-size="16" font-weight="850" font-family="system-ui,-apple-system,Segoe UI,Noto Sans TC,sans-serif">🚌 約 25–30 min</text><text x="707.9" y="559.2" text-anchor="middle" fill="#40576c" font-size="14" font-weight="700" font-family="system-ui,-apple-system,Segoe UI,Noto Sans TC,sans-serif">沢渡 ↔ 上高地</text>
<rect x="416.7" y="700.9" width="190" height="58" rx="12" fill="#ffffff" opacity=".94" filter="url(#shadow)"/><text x="511.7" y="724.9" text-anchor="middle" fill="#6754d9" font-size="16" font-weight="850" font-family="system-ui,-apple-system,Segoe UI,Noto Sans TC,sans-serif">🚗 約 3h50</text><text x="511.7" y="745.9" text-anchor="middle" fill="#40576c" font-size="14" font-weight="700" font-family="system-ui,-apple-system,Segoe UI,Noto Sans TC,sans-serif">沢渡 → 山中溫泉</text>
<circle cx="871.7" cy="359.1" r="4" fill="#667a87"/><text x="879.7" y="351.1" fill="#526875" font-size="15" font-weight="700" font-family="system-ui,-apple-system,Segoe UI,Noto Sans TC,sans-serif">大町</text>
<circle cx="886.6" cy="525.1" r="4" fill="#667a87"/><text x="894.6" y="543.1" fill="#526875" font-size="15" font-weight="700" font-family="system-ui,-apple-system,Segoe UI,Noto Sans TC,sans-serif">安曇野</text>
<circle cx="931.2" cy="586.5" r="4" fill="#667a87"/><text x="939.2" y="604.5" fill="#526875" font-size="15" font-weight="700" font-family="system-ui,-apple-system,Segoe UI,Noto Sans TC,sans-serif">松本</text>
<circle cx="702.0" cy="614.5" r="4" fill="#667a87"/><text x="710.0" y="634.5" fill="#526875" font-size="15" font-weight="700" font-family="system-ui,-apple-system,Segoe UI,Noto Sans TC,sans-serif">平湯</text>
<circle cx="569.5" cy="719.4" r="4" fill="#667a87"/><text x="577.5" y="709.4" fill="#526875" font-size="15" font-weight="700" font-family="system-ui,-apple-system,Segoe UI,Noto Sans TC,sans-serif">高山</text>
<circle cx="534.9" cy="763.1" r="4" fill="#667a87"/><text x="542.9" y="783.1" fill="#526875" font-size="15" font-weight="700" font-family="system-ui,-apple-system,Segoe UI,Noto Sans TC,sans-serif">飛騨清見</text>
<circle cx="400.7" cy="588.6" r="4" fill="#667a87"/><text x="408.7" y="578.6" fill="#526875" font-size="15" font-weight="700" font-family="system-ui,-apple-system,Segoe UI,Noto Sans TC,sans-serif">白川鄉</text>
<circle cx="266.6" cy="326.8" r="4" fill="#667a87"/><text x="274.6" y="316.8" fill="#526875" font-size="15" font-weight="700" font-family="system-ui,-apple-system,Segoe UI,Noto Sans TC,sans-serif">小矢部・砺波</text>
<circle cx="192.0" cy="457.9" r="4" fill="#667a87"/><text x="200.0" y="447.9" fill="#526875" font-size="15" font-weight="700" font-family="system-ui,-apple-system,Segoe UI,Noto Sans TC,sans-serif">小松</text>
<path d="M787.1,199.2 L807.1,167.2 L827.1,199.2 Z" fill="#87aa96" opacity=".75"/><path d="M801.5,177.6 L807.1,167.2 L813.5,177.6 L808.7,175.2 Z" fill="#fff" opacity=".9"/>
<path d="M737.6,535.2 L753.6,509.6 L769.6,535.2 Z" fill="#87aa96" opacity=".75"/><path d="M749.2,517.6 L753.6,509.6 L758.8,517.6 L754.8,515.6 Z" fill="#fff" opacity=".9"/>
<path d="M677.3,627.9 L691.3,605.5 L705.3,627.9 Z" fill="#87aa96" opacity=".75"/><path d="M687.1,612.5 L691.3,605.5 L695.7,612.5 L692.3,610.7 Z" fill="#fff" opacity=".9"/>
<circle cx="876.7" cy="184.4" r="18" fill="#e45561" stroke="#fff" stroke-width="5" filter="url(#shadow)"/><text x="876.7" y="190.4" text-anchor="middle" fill="#fff" font-size="17" font-weight="900">1</text><rect x="770.7" y="141.4" width="108" height="34" rx="10" fill="#fff" opacity=".96" filter="url(#shadow)"/><text x="780.7" y="164.4" fill="#17324d" font-size="18" font-weight="850" font-family="system-ui,-apple-system,Segoe UI,Noto Sans TC,sans-serif">白馬住宿</text>
<circle cx="722.8" cy="640.7" r="18" fill="#8a63d2" stroke="#fff" stroke-width="5" filter="url(#shadow)"/><text x="722.8" y="646.7" text-anchor="middle" fill="#fff" font-size="17" font-weight="900">2</text><rect x="740.8" y="640.7" width="108" height="34" rx="10" fill="#fff" opacity=".96" filter="url(#shadow)"/><text x="750.8" y="663.7" fill="#17324d" font-size="18" font-weight="850" font-family="system-ui,-apple-system,Segoe UI,Noto Sans TC,sans-serif">沢渡 🅿️</text>
<circle cx="707.9" cy="577.8" r="18" fill="#2f6fed" stroke="#fff" stroke-width="5" filter="url(#shadow)"/><text x="707.9" y="583.8" text-anchor="middle" fill="#fff" font-size="17" font-weight="900">3</text><rect x="585.9" y="534.8" width="96" height="34" rx="10" fill="#fff" opacity=".96" filter="url(#shadow)"/><text x="595.9" y="557.8" fill="#17324d" font-size="18" font-weight="850" font-family="system-ui,-apple-system,Segoe UI,Noto Sans TC,sans-serif">上高地</text>
<circle cx="147.5" cy="588.6" r="18" fill="#e45561" stroke="#fff" stroke-width="5" filter="url(#shadow)"/><text x="147.5" y="594.6" text-anchor="middle" fill="#fff" font-size="17" font-weight="900">4</text><rect x="165.5" y="545.6" width="126" height="34" rx="10" fill="#fff" opacity=".96" filter="url(#shadow)"/><text x="175.5" y="568.6" fill="#17324d" font-size="18" font-weight="850" font-family="system-ui,-apple-system,Segoe UI,Noto Sans TC,sans-serif">山中溫泉 ♨</text>
<rect x="1085" y="82" width="391" height="790" rx="22" fill="#ffffff" opacity=".98" filter="url(#shadow)"/>
<text x="1111" y="122" fill="#17324d" font-size="24" font-weight="900" font-family="system-ui,-apple-system,Segoe UI,Noto Sans TC,sans-serif">Day 5 路線重點</text>
<rect x="1105" y="160" width="347" height="142" rx="16" fill="#f7f9fc" stroke="#e1e7ed"/><text x="1121" y="190" fill="#17324d" font-size="18" font-weight="900" font-family="system-ui,-apple-system,Segoe UI,Noto Sans TC,sans-serif">① 白馬 → 沢渡</text><text x="1121" y="218" fill="#6754d9" font-size="15" font-weight="800" font-family="system-ui,-apple-system,Segoe UI,Noto Sans TC,sans-serif">🚗 自駕｜約 124 km / 2h20</text><text x="1121" y="244" fill="#40576c" font-size="14" font-weight="700" font-family="system-ui,-apple-system,Segoe UI,Noto Sans TC,sans-serif">國道148號 → 安曇野／松本 → 國道158號</text><text x="1121" y="271" fill="#687b8c" font-size="13" font-family="system-ui,-apple-system,Segoe UI,Noto Sans TC,sans-serif">沿北阿爾卑斯東側南下，先到沢渡停車。</text>
<rect x="1105" y="318" width="347" height="142" rx="16" fill="#f7f9fc" stroke="#e1e7ed"/><text x="1121" y="348" fill="#17324d" font-size="18" font-weight="900" font-family="system-ui,-apple-system,Segoe UI,Noto Sans TC,sans-serif">② 沢渡 ↔ 上高地</text><text x="1121" y="376" fill="#6754d9" font-size="15" font-weight="800" font-family="system-ui,-apple-system,Segoe UI,Noto Sans TC,sans-serif">🚌 巴士／的士｜約 25–30 min</text><text x="1121" y="402" fill="#40576c" font-size="14" font-weight="700" font-family="system-ui,-apple-system,Segoe UI,Noto Sans TC,sans-serif">上高地全年私家車管制</text><text x="1121" y="429" fill="#687b8c" font-size="13" font-family="system-ui,-apple-system,Segoe UI,Noto Sans TC,sans-serif">車停沢渡，轉乘低公害巴士／的士入山。</text>
<rect x="1105" y="476" width="347" height="142" rx="16" fill="#f7f9fc" stroke="#e1e7ed"/><text x="1121" y="506" fill="#17324d" font-size="18" font-weight="900" font-family="system-ui,-apple-system,Segoe UI,Noto Sans TC,sans-serif">③ 沢渡 → 山中溫泉</text><text x="1121" y="534" fill="#6754d9" font-size="15" font-weight="800" font-family="system-ui,-apple-system,Segoe UI,Noto Sans TC,sans-serif">🚗 自駕｜約 222 km / 3h50</text><text x="1121" y="560" fill="#40576c" font-size="14" font-weight="700" font-family="system-ui,-apple-system,Segoe UI,Noto Sans TC,sans-serif">R158 → 高山 → 飛騨清見 → E41 → E8</text><text x="1121" y="587" fill="#687b8c" font-size="13" font-family="system-ui,-apple-system,Segoe UI,Noto Sans TC,sans-serif">經飛騨、高山再上高速往石川；呢段係全日最長。</text>
<rect x="1105" y="650" width="347" height="118" rx="16" fill="#fff8ea" stroke="#efd49c"/><text x="1121" y="681" fill="#7a5a1e" font-size="18" font-weight="900" font-family="system-ui,-apple-system,Segoe UI,Noto Sans TC,sans-serif">⚠ 上高地交通規則</text><text x="1121" y="708" fill="#6c5a39" font-size="14" font-weight="700" font-family="system-ui,-apple-system,Segoe UI,Noto Sans TC,sans-serif">私家車不可駛入上高地。</text><text x="1121" y="731" fill="#6c5a39" font-size="13" font-family="system-ui,-apple-system,Segoe UI,Noto Sans TC,sans-serif">沢渡泊車後轉巴士／的士。</text><text x="1121" y="755" fill="#6c5a39" font-size="13" font-family="system-ui,-apple-system,Segoe UI,Noto Sans TC,sans-serif">2026 服務期：4/17–11/15。</text>
<text x="1110" y="814" fill="#17324d" font-size="15" font-weight="850" font-family="system-ui,-apple-system,Segoe UI,Noto Sans TC,sans-serif">圖例</text><line x1="1110" y1="840" x2="1155" y2="840" stroke="#6754d9" stroke-width="7" stroke-linecap="round"/><text x="1167" y="845" fill="#526875" font-size="13" font-family="system-ui,-apple-system,Segoe UI,Noto Sans TC,sans-serif">自駕</text><line x1="1235" y1="840" x2="1280" y2="840" stroke="#e88c27" stroke-width="7" stroke-dasharray="12 9" stroke-linecap="round"/><text x="1292" y="845" fill="#526875" font-size="13" font-family="system-ui,-apple-system,Segoe UI,Noto Sans TC,sans-serif">巴士／的士</text>
<g transform="translate(1010 105)"><circle r="25" fill="#fff" stroke="#ccd7df"/><path d="M0,-17 L7,10 L0,6 L-7,10 Z" fill="#17324d"/><text y="-29" text-anchor="middle" fill="#17324d" font-size="14" font-weight="900">N</text></g>
<text x="1035" y="875" text-anchor="end" fill="#738491" font-size="13" font-family="system-ui,-apple-system,Segoe UI,Noto Sans TC,sans-serif">主要道路及城市作行程理解用；正式導航以當日 Google／Apple Maps 為準</text>
</svg>